#!OML:ASF F:\VICON\USERDATA\INSTALL\rory3\rory3.ASF
:FULLY-SPECIFIED
:DEGREES
476
root 1.53079 16.4255 7.71572 18.7142 1.828 -6.4949
lowerback -0.700619 0.149267 5.18243
upperback -5.89368 0.461699 2.67769
thorax -5.71819 0.0480124 -0.133095
lowerneck -11.8396 -3.97574 -8.70116
upperneck 16.3467 -5.17748 7.69904
head 7.39265 -2.34635 3.44037
rclavicle -1.41634e-015 4.37326e-015
rhumerus -42.4749 12.5496 -78.5294
rradius 54.2721
rwrist 12.2958
rhand -27.5141 -51.8146
rfingers 7.12502
rthumb -0.91661 -81.7923
lclavicle -1.41634e-015 4.37326e-015
lhumerus -40.1168 -25.3903 76.5873
lradius 71.2684
lwrist -7.23414
lhand -31.8857 -43.3375
lfingers 7.12502
lthumb -5.13839 -13.4198
rfemur -42.9074 2.07973 16.1659
rtibia 53.8733
rfoot -12.2825 -15.9575
rtoes -31.5189
lfemur -45.2995 -0.326576 -11.4209
ltibia 55.9838
lfoot -23.1248 10.4635
ltoes -14.2174
477
root 1.58947 16.6761 7.7693 18.4821 1.61218 -6.54171
lowerback -1.35423 0.254771 5.04094
upperback -5.74109 0.54585 2.75811
thorax -5.17935 0.110749 0.0252929
lowerneck -12.616 -4.34023 -8.37062
upperneck 17.6058 -5.60626 6.94775
head 7.95256 -2.57951 3.08658
rclavicle -4.17448e-015 1.55052e-014
rhumerus -42.7014 12.601 -78.4025
rradius 54.3037
rwrist 12.5348
rhand -28.3497 -50.7114
rfingers 7.12502
rthumb -1.72368 -80.6842
lclavicle -4.17448e-015 1.55052e-014
lhumerus -40.1445 -25.9056 76.4188
lradius 71.7331
lwrist -7.31088
lhand -32.2261 -43.3798
lfingers 7.12502
lthumb -5.46704 -13.4704
rfemur -41.1443 3.02515 15.6889
rtibia 51.2086
rfoot -8.36945 -14.9149
rtoes -34.5129
lfemur -43.0716 -0.242669 -11.5585
ltibia 52.6034
lfoot -20.8044 9.23768
ltoes -14.3659
478
root 1.65268 16.9439 7.81764 18.2275 1.39201 -6.6774
lowerback -1.83951 0.332668 5.05263
upperback -5.75896 0.617727 2.83758
thorax -4.92009 0.152648 0.100828
lowerneck -14.8164 -4.96489 -7.19089
upperneck 20.5104 -6.26633 4.88655
head 9.28691 -2.96867 2.0856
rclavicle -5.06901e-015 7.35503e-015
rhumerus -43.1986 12.7395 -78.4152
rradius 54.4093
rwrist 12.7976
rhand -28.5528 -50.7527
rfingers 7.12502
rthumb -1.91982 -80.7238
lclavicle -5.06901e-015 7.35503e-015
lhumerus -40.529 -26.3818 76.3775
lradius 72.0555
lwrist -7.51028
lhand -32.5276 -44.0679
lfingers 7.12502
lthumb -5.7581 -14.1661
rfemur -39.6443 3.99724 15.2461
rtibia 48.6107
rfoot -4.06139 -13.0402
rtoes -35.5254
lfemur -40.8722 -0.136015 -11.6011
ltibia 49.2561
lfoot -17.9581 7.96679
ltoes -15.2078
479
root 1.74827 17.2343 7.85216 18.06 1.48578 -6.51575
lowerback -2.25104 0.264653 5.3412
upperback -5.94632 0.504558 2.75691
thorax -4.88797 0.0792355 -0.137913
lowerneck -14.1559 -4.93866 -7.14899
upperneck 20.9343 -6.28352 4.78648
head 9.30809 -2.99567 2.05564
rclavicle -1.01877e-015 2.3059e-014
rhumerus -43.9281 13.0501 -78.5625
rradius 54.4599
rwrist 13.077
rhand -28.3289 -51.2245
rfingers 7.12502
rthumb -1.70352 -81.1975
lclavicle -1.01877e-015 2.3059e-014
lhumerus -41.2991 -26.6317 76.4699
lradius 72.3107
lwrist -7.79293
lhand -32.5661 -44.4712
lfingers 7.12502
lthumb -5.7953 -14.5704
rfemur -38.254 3.90734 14.6094
rtibia 46.0853
rfoot 0.518419 -10.4292
rtoes -36.7856
lfemur -38.6505 -0.458599 -11.964
ltibia 45.7309
lfoot -14.6108 6.5173
ltoes -16.6912
480
root 1.82975 17.5256 7.89441 17.9013 1.32971 -6.52765
lowerback -2.78174 0.284964 5.49324
upperback -6.04385 0.495415 2.7592
thorax -4.69064 0.0703922 -0.21776
lowerneck -13.3604 -4.93025 -7.07474
upperneck 21.1428 -6.31169 4.59907
head 9.22567 -3.0366 1.99151
rclavicle -2.23633e-015 9.34288e-015
rhumerus -44.5213 13.2303 -78.6948
rradius 54.4348
rwrist 13.2212
rhand -28.0667 -51.0737
rfingers 7.12502
rthumb -1.45031 -81.0485
lclavicle -2.23633e-015 9.34288e-015
lhumerus -42.0666 -26.7311 76.6259
lradius 72.3517
lwrist -7.87899
lhand -32.3737 -45.2593
lfingers 7.12502
lthumb -5.60956 -15.3536
rfemur -37.0879 4.05351 14.2084
rtibia 43.7027
rfoot 4.79209 -7.91993
rtoes -37.0763
lfemur -36.4428 -0.536383 -12.076
ltibia 42.1887
lfoot -10.9067 4.67009
ltoes -18.5772
481
root 1.90698 17.8308 7.93904 17.7841 1.04485 -6.57853
lowerback -3.33959 0.334386 5.50126
upperback -6.05275 0.519028 2.83171
thorax -4.38381 0.0896506 -0.145648
lowerneck -12.8849 -4.92866 -7.08355
upperneck 21.4169 -6.32455 4.47586
head 9.22954 -3.06454 1.95903
rclavicle -1.90088e-015 -1.11319e-014
rhumerus -44.8491 13.3049 -78.7409
rradius 54.3607
rwrist 13.1112
rhand -27.9808 -50.6305
rfingers 7.12502
rthumb -1.36736 -80.6058
lclavicle -1.90088e-015 -1.11319e-014
lhumerus -42.5902 -26.7197 76.8056
lradius 72.0906
lwrist -7.98717
lhand -32.4346 -46.0704
lfingers 7.12502
lthumb -5.66834 -16.1662
rfemur -36.1571 4.23144 13.8447
rtibia 41.4337
rfoot 9.38013 -6.29512
rtoes -34.6072
lfemur -34.3493 -0.48972 -12.1314
ltibia 38.5711
lfoot -6.66749 2.7649
ltoes -21.6883
482
root 1.98102 18.1367 7.96543 17.7044 0.556045 -6.41084
lowerback -3.66412 0.370966 5.19159
upperback -6.12831 0.548985 2.87635
thorax -4.27888 0.120113 0.0741775
lowerneck -12.609 -4.86994 -7.15004
upperneck 21.9297 -6.25647 4.42103
head 9.35276 -3.04936 1.96603
rclavicle -9.67833e-015 1.09332e-014
rhumerus -45.1615 13.5516 -78.8384
rradius 54.263
rwrist 12.7558
rhand -27.813 -50.1677
rfingers 7.12502
rthumb -1.2053 -80.1441
lclavicle -9.67833e-015 1.09332e-014
lhumerus -43.2307 -26.5285 77.0172
lradius 71.7531
lwrist -8.32517
lhand -32.857 -45.8471
lfingers 7.12502
lthumb -6.07616 -15.9542
rfemur -35.5635 4.42374 13.2041
rtibia 39.4363
rfoot 13.6177 -5.48723
rtoes -30.8769
lfemur -32.4955 -0.461095 -12.37
ltibia 35.0537
lfoot -1.83555 1.13213
ltoes -23.9985
483
root 2.0687 18.4496 8.00366 17.7966 0.298562 -6.47194
lowerback -4.52986 0.399449 5.44421
upperback -6.1505 0.51627 2.89518
thorax -3.81653 0.101789 -0.0433019
lowerneck -12.2681 -4.83681 -7.12746
upperneck 22.4193 -6.23377 4.30815
head 9.4541 -3.05555 1.93387
rclavicle 1.30204e-014 3.63776e-014
rhumerus -45.4641 13.7281 -78.9891
rradius 54.219
rwrist 12.3589
rhand -27.411 -49.5888
rfingers 7.12502
rthumb -0.817049 -79.567
lclavicle 1.30204e-014 3.63776e-014
lhumerus -43.7906 -26.3619 77.1503
lradius 71.3262
lwrist -8.45325
lhand -33.2443 -45.7143
lfingers 7.12502
lthumb -6.45003 -15.8325
rfemur -35.0611 3.99575 12.9935
rtibia 37.8144
rfoot 16.6208 -4.9556
rtoes -26.4579
lfemur -30.9858 -0.690789 -12.245
ltibia 31.7727
lfoot 3.3598 0.161162
ltoes -23.8804
484
root 2.16819 18.7454 8.04866 17.8837 0.215632 -6.62994
lowerback -5.54187 0.439202 6.04029
upperback -6.10337 0.466039 2.86698
thorax -3.20375 0.0656798 -0.4005
lowerneck -11.9456 -4.83307 -6.98462
upperneck 22.8192 -6.24741 4.09095
head 9.52237 -3.07918 1.84047
rclavicle 5.76476e-015 -2.44505e-014
rhumerus -45.7667 13.772 -79.1405
rradius 54.2755
rwrist 11.8898
rhand -27.3757 -48.7655
rfingers 7.12502
rthumb -0.782954 -78.7438
lclavicle 5.76476e-015 -2.44505e-014
lhumerus -44.1423 -26.3031 77.2739
lradius 70.7397
lwrist -8.09752
lhand -33.371 -46.2545
lfingers 7.12502
lthumb -6.57233 -16.3765
rfemur -34.5835 2.92732 13.0821
rtibia 36.8393
rfoot 17.153 -4.7158
rtoes -24.9234
lfemur -29.744 -1.32827 -11.9007
ltibia 28.9362
lfoot 8.38855 0.0556096
ltoes -22.0271
485
root 2.23724 19.0058 8.03127 17.9037 -0.19231 -6.78085
lowerback -5.32068 0.489695 6.14195
upperback -6.31622 0.562576 2.89856
thorax -3.54772 0.0992213 -0.4214
lowerneck -11.8298 -4.7784 -6.75542
upperneck 23.3438 -6.17832 3.79671
head 9.66332 -3.06226 1.71172
rclavicle 2.03382e-014 7.95139e-016
rhumerus -46.108 13.8552 -79.3856
rradius 54.2467
rwrist 11.3567
rhand -27.5941 -47.9609
rfingers 7.12502
rthumb -0.993921 -77.9383
lclavicle 2.03382e-014 7.95139e-016
lhumerus -44.6816 -26.2106 77.4595
lradius 70.1376
lwrist -7.51428
lhand -33.2967 -46.5825
lfingers 7.12502
lthumb -6.50068 -16.7023
rfemur -34.6482 2.87128 13.0861
rtibia 36.6103
rfoot 17.1113 -4.32407
rtoes -25.737
lfemur -29.0499 -2.19084 -11.2907
ltibia 26.7386
lfoot 12.9274 0.362281
ltoes -20.3834
486
root 2.30584 19.2409 8.03012 17.9857 -0.776983 -6.74478
lowerback -5.4651 0.560036 6.05373
upperback -6.41225 0.649719 2.86596
thorax -3.56307 0.143346 -0.402867
lowerneck -11.9932 -4.70801 -6.50408
upperneck 23.9155 -6.07387 3.50572
head 9.87298 -3.02275 1.57808
rclavicle -1.09704e-014 1.68967e-014
rhumerus -46.2405 13.8526 -79.6249
rradius 54.0384
rwrist 10.9564
rhand -27.6762 -47.1735
rfingers 7.12502
rthumb -1.07314 -77.1506
lclavicle -1.09704e-014 1.68967e-014
lhumerus -45.1368 -25.9887 77.5879
lradius 69.5169
lwrist -6.887
lhand -33.2695 -46.7012
lfingers 7.12502
lthumb -6.47436 -16.8202
rfemur -35.0692 2.73971 12.8948
rtibia 37.3465
rfoot 17.8692 -3.87691
rtoes -26.4422
lfemur -28.6798 -3.17795 -10.9151
ltibia 25.4598
lfoot 16.2055 0.301721
ltoes -21.1938
487
root 2.38659 19.4744 8.02895 18.1756 -1.13756 -6.60178
lowerback -5.90402 0.602754 6.10886
upperback -6.33109 0.658451 2.76345
thorax -3.2303 0.151611 -0.536879
lowerneck -12.5371 -4.74541 -6.25973
upperneck 24.4566 -6.09302 3.2155
head 10.1545 -3.03535 1.42052
rclavicle 1.30328e-014 -8.74653e-015
rhumerus -46.0236 13.7479 -79.7568
rradius 53.8616
rwrist 10.5288
rhand -27.6176 -46.3042
rfingers 7.12502
rthumb -1.01657 -76.2816
lclavicle 1.30328e-014 -8.74653e-015
lhumerus -45.114 -25.6857 77.6161
lradius 68.7759
lwrist -6.3589
lhand -33.4749 -46.5755
lfingers 7.12502
lthumb -6.6727 -16.7007
rfemur -35.9368 2.12369 12.7134
rtibia 39.1848
rfoot 17.9386 -4.25064
rtoes -26.3246
lfemur -28.7022 -3.97936 -10.8033
ltibia 24.8798
lfoot 18.3582 0.710573
ltoes -20.8821
